<svg width="40" height="40" viewBox="0 0 40 40" fill="none" xmlns="http://www.w3.org/2000/svg">
<g clip-path="url(#clip0_1606_458)">
<path d="M37.5 30.625H34.2863C34.0069 29.5494 33.0369 28.75 31.875 28.75V24.3587C32.4127 24.7724 33.0716 24.9977 33.75 25C35.4731 25 36.875 23.5981 36.875 21.875C36.8748 21.677 36.8547 21.4796 36.815 21.2856C37.2211 20.9994 37.5522 20.6195 37.7803 20.1781C38.0083 19.7367 38.1266 19.2468 38.125 18.75C38.1263 18.3208 38.0379 17.896 37.8655 17.503C37.693 17.1099 37.4404 16.7572 37.1237 16.4675C37.3691 16.0172 37.4985 15.5128 37.5 15C37.4994 14.2281 37.21 13.4843 36.6888 12.915C36.8117 12.582 36.8747 12.2299 36.875 11.875C36.8741 11.1096 36.5927 10.3712 36.0841 9.79924C35.5755 9.22731 34.875 8.86159 34.115 8.77125C33.6306 7.63438 32.5119 6.875 31.25 6.875C29.9881 6.875 28.8694 7.63438 28.385 8.77125C27.625 8.86159 26.9245 9.22731 26.4159 9.79924C25.9073 10.3712 25.6259 11.1096 25.625 11.875C25.625 12.2288 25.6875 12.5769 25.8113 12.915C25.4902 13.2725 25.2567 13.6998 25.1294 14.1631C24.3644 13.5094 23.465 13.125 22.5 13.125C21.31 13.125 20.2175 13.7013 19.3581 14.6594C19.2768 13.8155 18.9058 13.0257 18.3081 12.4244L16.5087 10.625H19.375V9.36625C19.3728 9.07292 19.3008 8.78432 19.1651 8.52427C19.0294 8.26422 18.8337 8.04018 18.5944 7.87063C16.3294 6.24592 14.515 4.07168 13.3219 1.5525C13.0513 0.98 12.4963 0.625 11.875 0.625C11.2537 0.625 10.6987 0.98 10.4281 1.5525C9.23556 4.07222 7.42079 6.24662 5.155 7.87063C4.91582 8.04032 4.72037 8.26441 4.58476 8.52444C4.44915 8.78447 4.37725 9.07299 4.375 9.36625V10.625H7.24125L5.44187 12.4244C4.76108 13.109 4.37773 14.0345 4.375 15V15.625H7.24125L5.44187 17.4244C4.76108 18.109 4.37773 19.0345 4.375 20V20.625H11.25V23.125C10.4846 23.1259 9.74617 23.4073 9.17424 23.9159C8.60231 24.4245 8.23659 25.125 8.14625 25.885C7.58407 26.124 7.10458 26.523 6.76742 27.0324C6.43027 27.5418 6.25033 28.1391 6.25 28.75C6.25 29.4406 6.48062 30.1044 6.87313 30.625C6.37637 30.6262 5.90032 30.8241 5.54924 31.1756C5.19816 31.527 5.00066 32.0032 5 32.5C5 32.6658 4.93415 32.8247 4.81694 32.9419C4.69973 33.0592 4.54076 33.125 4.375 33.125H2.5C1.46625 33.125 0.625 33.9663 0.625 35C0.625 36.0337 1.46625 36.875 2.5 36.875H5.74C5.66598 37.0752 5.62707 37.2866 5.625 37.5C5.625 38.5337 6.46625 39.375 7.5 39.375H31.875C32.9087 39.375 33.75 38.5337 33.75 37.5C33.75 36.4663 32.9087 35.625 31.875 35.625H30C29.8342 35.625 29.6753 35.5592 29.5581 35.4419C29.4408 35.3247 29.375 35.1658 29.375 35C29.375 34.8342 29.4408 34.6753 29.5581 34.5581C29.6753 34.4408 29.8342 34.375 30 34.375H37.5C38.5337 34.375 39.375 33.5337 39.375 32.5C39.375 31.4662 38.5337 30.625 37.5 30.625ZM32.9437 30.625H24.5594C24.7068 30.3701 24.9397 30.1757 25.2169 30.0763L25.6506 29.925L25.6356 29.4656C25.6358 29.4351 25.6322 29.4047 25.625 29.375C25.625 28.3412 26.4662 27.5 27.5 27.5C28.1675 27.5 28.79 27.8688 29.125 28.4619L29.2731 28.725L29.5719 28.7719C30.0531 28.8481 30.4469 29.2025 30.575 29.6756L30.7588 30.3544L31.4112 30.0919C32.0125 29.8519 32.6431 30.1306 32.9437 30.625ZM23.125 26.8156C24.5187 26.575 25.7331 25.5438 26.5275 24.0575C26.8173 24.3536 27.163 24.5894 27.5444 24.7512C27.9259 24.9129 28.3357 24.9975 28.75 25C29.4562 25 30.1012 24.7556 30.625 24.3587V27.8538C30.448 27.7466 30.2581 27.6622 30.06 27.6025C29.7744 27.1869 29.3923 26.8468 28.9464 26.6112C28.5006 26.3757 28.0043 26.2517 27.5 26.25C26.7216 26.2509 25.9715 26.5419 25.3961 27.0661C24.8207 27.5903 24.4613 28.3101 24.3881 29.085C24.0987 29.2502 23.8451 29.4715 23.6423 29.7359C23.4395 30.0004 23.2914 30.3026 23.2069 30.625H23.125V26.8156ZM26.9556 13.5494L27.3612 13.2219L27.1119 12.7644C26.9595 12.4925 26.878 12.1866 26.875 11.875C26.875 10.8413 27.7163 10 28.7094 9.99813L29.3162 10.0294L29.4412 9.53813C29.6531 8.70625 30.3975 8.125 31.25 8.125C32.1025 8.125 32.8469 8.70625 33.0594 9.53813L33.1844 10.0294L33.6919 10.0081C33.725 10.0069 33.7581 10.0031 33.75 10C34.7837 10 35.625 10.8413 35.625 11.875C35.625 12.1756 35.545 12.475 35.3881 12.7638L35.1387 13.2212L35.5444 13.5487C35.7633 13.7223 35.9403 13.9428 36.0625 14.194C36.1846 14.4452 36.2487 14.7207 36.25 15C36.25 15.555 36.0031 15.9612 35.7962 16.205L35.3181 16.7681L35.9531 17.1456C36.2458 17.316 36.4862 17.5632 36.6486 17.8603C36.8109 18.1575 36.8889 18.4934 36.8742 18.8317C36.8595 19.17 36.7525 19.4978 36.565 19.7797C36.3774 20.0617 36.1163 20.287 35.81 20.4312L35.2956 20.68L35.4975 21.2144C35.5825 21.4394 35.625 21.6612 35.625 21.875C35.625 22.9088 34.7837 23.75 33.75 23.75C32.7163 23.75 31.875 22.9088 31.875 21.875V20.22L34.2381 17.2656L33.2612 16.4844L31.875 18.2175V11.875H30.625V15.7175L29.2381 13.9844L28.2612 14.7656L30.625 17.72V21.875C30.625 22.9088 29.7838 23.75 28.75 23.75C28.4061 23.7478 28.0694 23.6516 27.7762 23.472C27.483 23.2923 27.2444 23.036 27.0863 22.7306C27.3513 21.8925 27.5 20.97 27.5 20C27.5 18.2631 27.0256 16.6794 26.25 15.4681V15C26.25 14.44 26.5069 13.9113 26.9556 13.5494ZM22.5 14.375C24.5681 14.375 26.25 16.8981 26.25 20C26.25 22.7819 24.8956 25.0919 23.125 25.5406V20.845L25.4881 17.8906L24.5112 17.1094L23.125 18.8425V16.875H21.875V21.6856L20.52 19.6531L19.48 20.3463L21.875 23.9394V25.5406C20.1044 25.0925 18.75 22.7819 18.75 20C18.75 16.8981 20.4319 14.375 22.5 14.375ZM18.6462 15.625C18.3716 16.0889 18.147 16.5806 17.9762 17.0919L16.5087 15.625H18.6462ZM6.32563 18.3081L9.00875 15.625H10V14.375H5.70938C5.81899 13.972 6.03133 13.6044 6.32563 13.3081L9.00875 10.625H10V9.375H5.625V9.36625C5.625 9.17937 5.71875 9.00438 5.88313 8.88625C8.32141 7.1384 10.2744 4.79841 11.5581 2.08687C11.6812 1.82438 12.0681 1.82438 12.1919 2.08687C13.4757 4.79812 15.4285 7.13801 17.8663 8.88625C18.0312 9.00438 18.125 9.18 18.125 9.36625L13.75 9.375V10.625H14.7413L17.4244 13.3081C17.72 13.6037 17.9319 13.9744 18.0406 14.375H13.75V15.625H14.7413L17.4244 18.3081C17.4944 18.3781 17.5581 18.4519 17.6181 18.5287C17.5744 18.805 17.5419 19.0869 17.5231 19.375H5.70938C5.81872 18.9719 6.0311 18.6042 6.32563 18.3081ZM12.5 20.625H17.5231C17.735 23.8388 19.5613 26.4162 21.875 26.8156V30.625H19.365C19.7745 30.0855 19.9974 29.4274 20 28.75C20 27.0269 18.5981 25.625 16.875 25.625C16.6794 25.625 16.4819 25.645 16.2856 25.685C15.9995 25.2788 15.6196 24.9476 15.1782 24.7196C14.7368 24.4915 14.2468 24.3733 13.75 24.375H13.7369C13.4148 23.9486 12.989 23.6117 12.5 23.3962V20.625ZM8.91313 26.9406L9.40438 26.8156L9.38312 26.3081C9.38383 26.2879 9.3813 26.2676 9.37563 26.2481L9.375 26.2494C9.375 25.2156 10.2163 24.3744 11.25 24.3744C11.9194 24.3744 12.5419 24.7437 12.8762 25.3381L13.1394 25.7031L13.5625 25.6437C13.6238 25.6362 13.6856 25.625 13.75 25.625C14.47 25.625 15.1144 26.0325 15.4313 26.6894L15.68 27.2056L16.2156 27.0019C17.5019 26.5144 18.7506 27.5006 18.75 28.75C18.75 29.2875 18.5187 29.8006 18.1144 30.1562L17.7525 30.625H8.57312L8.135 30.1562C7.93545 29.9803 7.77563 29.7639 7.66614 29.5215C7.55666 29.279 7.50002 29.016 7.5 28.75C7.5 27.8975 8.08125 27.1531 8.91313 26.9406ZM37.5 33.125H30C28.9662 33.125 28.125 33.9663 28.125 35C28.125 35.22 28.17 35.4287 28.24 35.625H26.875V36.875H31.875C32.0408 36.875 32.1997 36.9408 32.3169 37.0581C32.4342 37.1753 32.5 37.3342 32.5 37.5C32.5 37.6658 32.4342 37.8247 32.3169 37.9419C32.1997 38.0592 32.0408 38.125 31.875 38.125H7.5C7.33424 38.125 7.17527 38.0592 7.05806 37.9419C6.94085 37.8247 6.875 37.6658 6.875 37.5C6.875 37.3342 6.94085 37.1753 7.05806 37.0581C7.17527 36.9408 7.33424 36.875 7.5 36.875H11.25V35.625H2.5C2.33424 35.625 2.17527 35.5592 2.05806 35.4419C1.94085 35.3247 1.875 35.1658 1.875 35C1.875 34.8342 1.94085 34.6753 2.05806 34.5581C2.17527 34.4408 2.33424 34.375 2.5 34.375H4.375C5.40875 34.375 6.25 33.5337 6.25 32.5C6.25 32.3342 6.31585 32.1753 6.43306 32.0581C6.55027 31.9408 6.70924 31.875 6.875 31.875H37.5C37.6658 31.875 37.8247 31.9408 37.9419 32.0581C38.0592 32.1753 38.125 32.3342 38.125 32.5C38.125 32.6658 38.0592 32.8247 37.9419 32.9419C37.8247 33.0592 37.6658 33.125 37.5 33.125Z" fill="#118C97"/>
<path d="M15 34.6875C15 33.8256 14.2994 33.125 13.4375 33.125H11.25V34.375H13.4375C13.6094 34.375 13.75 34.5156 13.75 34.6875C13.75 35.5494 14.4506 36.25 15.3125 36.25H17.5V35H15.3125C15.2297 34.9998 15.1503 34.9669 15.0917 34.9083C15.0331 34.8497 15.0002 34.7703 15 34.6875Z" fill="#118C97"/>
</g>
<defs>
<clipPath id="clip0_1606_458">
<rect width="40" height="40" fill="white"/>
</clipPath>
</defs>
</svg>
